<?xml version="1.0" encoding="UTF-8" standalone="no"?>
<!DOCTYPE svg PUBLIC "-//W3C//DTD SVG 1.1//EN" "http://www.w3.org/Graphics/SVG/1.1/DTD/svg11.dtd">
<svg width="100%" height="100%" viewBox="0 0 347 53" version="1.1" xmlns="http://www.w3.org/2000/svg" xmlns:xlink="http://www.w3.org/1999/xlink" xml:space="preserve" xmlns:serif="http://www.serif.com/" style="fill-rule:evenodd;clip-rule:evenodd;stroke-linejoin:round;stroke-miterlimit:2;">
    <g id="path0" transform="matrix(1,0,0,1,-20.333,-130.167)">
        <path d="M262.944,130.278C262.883,130.339 262.833,141.926 262.833,156.028L262.833,181.667L273.833,181.667L273.833,161.781L274.526,162.849C274.907,163.436 275.535,164.404 275.922,165C276.308,165.596 276.959,166.608 277.369,167.25C277.778,167.892 278.748,169.392 279.525,170.583C280.301,171.775 281.267,173.275 281.67,173.917C282.601,175.399 284.248,177.954 285.617,180.042L286.682,181.667L292.924,181.667C296.358,181.667 299.167,181.626 299.167,181.577C299.167,181.527 299.032,181.283 298.868,181.035C298.704,180.787 298.498,180.458 298.41,180.306C298.322,180.153 297.725,179.258 297.083,178.318C296.442,177.378 295.767,176.37 295.583,176.078C295.4,175.786 294.725,174.772 294.083,173.825C293.442,172.879 292.767,171.867 292.583,171.577C291.682,170.15 290.263,168.077 289.982,167.776C289.809,167.59 289.667,167.384 289.667,167.318C289.667,167.253 289.123,166.399 288.458,165.422C287.794,164.445 287.087,163.369 286.888,163.031C286.688,162.693 286.46,162.342 286.38,162.25C285.898,161.696 285.877,161.737 288.167,158.848C288.762,158.096 289.415,157.255 289.617,156.978C289.818,156.702 290.231,156.187 290.533,155.835C291.413,154.81 292.23,153.81 292.496,153.433C292.869,152.904 294.817,150.503 295.269,150.016C295.488,149.78 295.667,149.527 295.667,149.454C295.667,149.38 295.967,149.008 296.333,148.627C296.7,148.245 297,147.877 297,147.809C297,147.741 297.262,147.4 297.583,147.051C298.588,145.957 298.822,146 291.875,146.002L285.583,146.003L284.75,147.093C284.292,147.692 283.674,148.497 283.378,148.883C282.093,150.553 279.734,153.736 279.563,154.032C279.46,154.209 279.188,154.556 278.958,154.802C278.728,155.049 278.363,155.522 278.145,155.854C277.64,156.627 274.919,160.245 274.303,160.964L273.833,161.512L273.833,130.167L268.444,130.167C265.481,130.167 263.006,130.217 262.944,130.278M20.542,134.021C20.377,134.189 20.333,139.201 20.333,157.95L20.333,181.667L32.125,181.663C47.125,181.659 49.188,181.481 53.583,179.815C55.136,179.226 56.898,178.025 57.361,177.24C57.547,176.925 57.753,176.667 57.819,176.667C58.051,176.667 58.678,175.271 59.004,174.029C59.461,172.283 59.503,163.066 59.059,161.738C58.355,159.628 55.598,157.281 53,156.578C52.396,156.415 52.315,156.353 52.583,156.259C53.772,155.843 55.331,154.699 55.832,153.876C56.001,153.598 56.219,153.321 56.315,153.261C57.251,152.683 57.775,144.93 57.098,141.684C56.134,137.061 53.227,135.026 46.453,134.234C43.267,133.861 20.878,133.677 20.542,134.021M145.042,133.936C144.876,134.009 144.833,138.952 144.833,157.847L144.833,181.667L156.625,181.663C170.833,181.659 173.832,181.435 177.167,180.123C177.762,179.889 178.428,179.645 178.646,179.581C180.588,179.01 182.928,176.245 183.575,173.757C184.258,171.13 183.817,160.667 183.024,160.667C182.959,160.667 182.77,160.437 182.604,160.157C182.327,159.687 181.942,159.291 180.833,158.331C180.174,157.761 178.489,156.872 177.635,156.645C176.904,156.45 176.694,156.167 177.28,156.167C177.688,156.167 179.584,154.741 180.22,153.957C181.533,152.338 181.83,151.112 181.832,147.309C181.837,137.832 179.661,135.245 170.833,134.232C168.437,133.957 145.59,133.695 145.042,133.936M41.421,142.657C45.615,143.005 45.755,143.166 45.74,147.654C45.722,152.996 45.454,153.167 37.053,153.167L32.333,153.167L32.333,142.5L35.958,142.503C37.952,142.504 40.41,142.574 41.421,142.657M167.966,142.891C169.891,143.327 170.252,144.084 170.246,147.667C170.236,152.876 169.775,153.167 161.509,153.167L156.667,153.167L156.667,142.453L161.792,142.553C165.293,142.621 167.249,142.728 167.966,142.891M79.417,145.341C71.387,146.079 67.389,148.59 65.712,153.946L65.251,155.417L65.251,164.25L65.25,173.083L65.806,174.539C66.296,175.819 67.802,178.158 68.145,178.171C68.203,178.173 68.537,178.433 68.889,178.75C72.591,182.085 83.938,183.49 93.75,181.828C94.85,181.642 96.237,181.409 96.833,181.31C98.629,181.012 98.5,181.315 98.5,177.406C98.5,173.329 98.812,173.648 95.468,174.311C88.22,175.748 81.873,175.692 78.833,174.164C76.974,173.229 76.5,172.226 76.5,169.225L76.5,167L99.333,167L99.333,155.73L98.856,153.823C97.213,147.264 90.475,144.324 79.417,145.341M208.083,145.492C205.348,146.221 202.14,148.424 201.519,150C201.397,150.308 201.352,149.838 201.344,148.206L201.333,145.995L196.042,146.039L190.75,146.083L190.708,163.875L190.665,181.667L201.833,181.667L201.834,170.458C201.835,162.997 201.895,159.035 202.014,158.606C202.34,157.431 203.112,156.395 204.049,155.876C205.898,154.851 206.272,154.781 210.417,154.678L214.25,154.583L214.25,145.25L211.75,145.215C209.756,145.188 209.014,145.244 208.083,145.492M232.514,145.347C224.73,145.944 220.427,148.922 219.05,154.667C218.597,156.554 218.596,171.839 219.048,173.537C219.702,175.991 222.108,179.667 223.062,179.667C223.183,179.667 223.412,179.81 223.571,179.986C224.04,180.505 227.205,181.578 230.083,182.195C231.783,182.559 242.039,182.498 243.833,182.113C246.712,181.495 249.145,180.683 249.946,180.072C250.239,179.849 250.546,179.667 250.629,179.667C250.89,179.667 252.78,177.598 252.916,177.164C252.987,176.936 253.1,176.713 253.167,176.667C255.395,175.149 255.85,156.502 253.758,152.462C253.508,151.979 253.15,151.283 252.963,150.917C250.771,146.619 243.117,144.535 232.514,145.347M315.167,145.346C306.953,146.083 302.327,149.303 301.416,154.917C301.06,157.109 301.059,171.52 301.414,173.377C302.717,180.182 311.215,183.353 325.411,182.329C327.438,182.183 333.259,181.312 333.93,181.055C334.124,180.981 334.167,180.326 334.167,177.399C334.167,173.284 334.408,173.658 332.083,174.174C326.711,175.366 319.673,175.684 316.69,174.869C313.174,173.908 312.463,172.978 312.36,169.209L312.301,167.002L323.775,166.959L335.25,166.917L335.301,162.333C335.329,159.804 335.27,156.943 335.17,155.949C335.002,154.288 334.865,153.782 333.943,151.417C332.207,146.959 324.596,144.499 315.167,145.346M360.667,145.404C358.192,145.963 355.747,147.428 354.338,149.197L353.583,150.144L353.537,148.07L353.49,145.995L348.203,146.039L342.917,146.083L342.874,163.875L342.832,181.667L354.154,181.667L354.202,169.875C354.248,158.549 354.263,158.064 354.572,157.583C355.146,156.693 355.733,156.144 356.571,155.717C358.273,154.848 358.56,154.799 362.583,154.689L366.417,154.583L366.417,145.25L364,145.223C362.575,145.207 361.207,145.282 360.667,145.404M106.112,146.11C106.05,146.172 106,147.822 106,149.778L106,153.333L122.891,153.333L122.56,153.708C122.377,153.915 122.101,154.271 121.945,154.5C121.788,154.729 121.325,155.329 120.914,155.833C120.213,156.694 118.89,158.367 117.75,159.834C117.475,160.188 116.087,161.954 114.667,163.759C113.246,165.564 111.974,167.2 111.84,167.395C111.707,167.59 111.332,168.063 111.007,168.446C110.388,169.175 109.584,170.19 108.192,172C107.734,172.596 107.086,173.421 106.752,173.833C106.418,174.246 105.923,174.877 105.652,175.236L105.159,175.889L105.205,178.736L105.25,181.583L121.462,181.626L137.673,181.668L137.628,178.042L137.583,174.417L128.632,174.374L119.681,174.33L120.299,173.49C120.639,173.027 121.16,172.372 121.458,172.033C121.756,171.694 122,171.327 122,171.217C122,171.107 122.099,170.957 122.219,170.883C122.411,170.767 123.09,169.924 125.792,166.446C126.136,166.004 126.682,165.329 127.007,164.946C127.332,164.563 128.194,163.463 128.923,162.5C129.653,161.538 130.381,160.619 130.541,160.459C130.702,160.298 130.835,160.11 130.836,160.042C130.837,159.973 131.175,159.542 131.586,159.084C131.997,158.627 132.333,158.156 132.333,158.038C132.333,157.919 132.433,157.785 132.555,157.738C132.677,157.691 133.274,157 133.881,156.201C134.489,155.403 135.287,154.375 135.656,153.917C137.255,151.928 137.18,152.181 137.129,148.955L137.083,146.083L121.654,146.041C113.167,146.017 106.174,146.049 106.112,146.11M86.337,152.664C88.346,153.355 88.637,153.977 88.654,157.621L88.667,160.325L82.583,160.371L76.5,160.417L76.5,157.52C76.5,153.719 76.731,153.322 79.375,152.581C80.436,152.284 85.404,152.343 86.337,152.664M239.903,152.511C241.694,152.824 242.67,153.425 243.25,154.571L243.75,155.559L243.798,163.614C243.828,168.671 243.783,171.902 243.677,172.295C243.023,174.722 241.196,175.446 236.113,175.288C229.749,175.092 229.666,174.946 229.669,164.047C229.671,153.864 229.804,153.448 233.333,152.585C234.455,152.311 238.5,152.265 239.903,152.511M322.743,152.929C324.438,153.762 324.657,154.34 324.663,158L324.667,160.417L312.333,160.417L312.333,157.689C312.333,154.265 312.584,153.609 314.132,152.98C316.24,152.125 321.047,152.096 322.743,152.929M45.081,161.491C47.161,162.316 47.417,162.964 47.417,167.417C47.417,172.766 47.076,172.967 37.792,173.122L32.333,173.212L32.333,160.974L38.208,161.035C43.928,161.094 44.11,161.106 45.081,161.491M168.216,161.174C171.317,161.748 172,162.892 172,167.514C172,172.648 171.016,173.148 160.875,173.161L156.667,173.167L156.667,161L161.969,161C164.95,161 167.685,161.076 168.216,161.174" style="fill:rgb(4,4,4);"/>
    </g>
</svg>
