<svg width="149" height="20" viewBox="0 0 149 20" fill="none" xmlns="http://www.w3.org/2000/svg"><g clip-path="url(#clip0_2109_830)"><path d="M13.8732 0L13.8441 3.58235H4.35864V8.28382H13.0759V11.895H4.35864V19.1405H0V0H13.8732Z" fill="currentColor"></path><path d="M20.7696 0V15.3678H29.0446V19.1405H16.4167V0H20.7754H20.7696Z" fill="currentColor"></path><path d="M44.4944 15.4197H35.556L34.0371 19.1405H29.5388L37.9302 0H42.4285L50.6745 19.1405H46.0132L44.4944 15.4197ZM43.0861 11.9469L40.0543 4.5111L36.9933 11.9469H43.0861Z" fill="currentColor"></path><path d="M64.9079 0V3.66311H59.0071V19.1405H54.6485V3.66311H48.771V0H64.9079Z" fill="currentColor"></path><path d="M87.2777 0L91.3338 14.4332L95.3607 0H99.6379L103.723 14.4332L107.744 0H112.213L105.818 19.1405H101.32L97.4324 5.49755L93.4636 19.1405H88.9653L82.5874 0H87.2777Z" fill="currentColor"></path><path d="M141.427 12.9564V19.1347H137.068V13.0661L129.928 0H134.316L139.25 8.58379L144.075 0H148.462L141.427 12.9564Z" fill="currentColor"></path><path d="M125.587 15.4197H116.648L115.129 19.1405H110.631L119.023 0H123.515L131.761 19.1405H127.1L125.581 15.4197H125.587ZM124.178 11.9469L121.147 4.5111L118.086 11.9469H124.178Z" fill="currentColor"></path><path d="M80.6383 16.2618C79.8294 15.6387 78.9507 15.1715 78.0371 14.8369C78.0254 14.8542 78.008 14.8657 77.9847 14.8542C77.9847 14.8542 76.2564 14.2369 74.5746 14.2196C74.5222 14.2196 74.464 14.2196 74.4117 14.2196C74.2138 14.2196 74.0159 14.2369 73.8181 14.2543C72.4215 14.3869 71.1587 14.8542 71.1587 14.8542C71.1354 14.86 71.1179 14.8542 71.1063 14.8369C71.0947 14.8254 71.0888 14.808 71.0947 14.7907L72.4797 11.4968L74.5222 6.63383C74.5397 6.59345 74.5921 6.59345 74.6095 6.63383L76.6521 11.4968C78.3222 11.768 79.9109 12.3679 81.3599 13.262L76.2913 1.21128C76.0411 0.617105 75.5231 0.138305 74.883 0.0286999C74.0159 -0.115517 73.2012 0.340208 72.8754 1.11898L67.7777 13.2505L65.997 17.4905C65.7875 17.9866 65.8166 18.5404 66.0552 19.0019C66.1366 19.1692 66.2472 19.3249 66.3869 19.4634C66.736 19.8153 67.2074 20.0056 67.6904 20.0056C67.9173 20.0056 68.1501 19.9652 68.3712 19.8729L71.5777 18.6038C73.5038 17.8424 75.6453 17.8424 77.5715 18.6038L80.6848 19.8383C81.2028 20.046 81.7963 20.0633 82.291 19.8037C82.2968 19.8037 82.3026 19.798 82.3084 19.7922C82.8438 19.5038 82.9718 18.7827 82.611 18.2923C82.0698 17.5424 81.4123 16.8617 80.6383 16.2675V16.2618Z" fill="#FDBA16"></path></g><defs><clipPath id="clip0_2109_830"><rect width="148.462" height="20" fill="currentColor"></rect></clipPath></defs></svg>