<?xml version="1.0" encoding="UTF-8" standalone="no"?>
<!DOCTYPE svg PUBLIC "-//W3C//DTD SVG 1.1//EN" "http://www.w3.org/Graphics/SVG/1.1/DTD/svg11.dtd">
<svg width="100%" height="100%" viewBox="0 0 178 65" version="1.1" xmlns="http://www.w3.org/2000/svg" xmlns:xlink="http://www.w3.org/1999/xlink" xml:space="preserve" xmlns:serif="http://www.serif.com/" style="fill-rule:evenodd;clip-rule:evenodd;stroke-linejoin:round;stroke-miterlimit:2;">
    <rect x="0" y="0" width="177.49" height="64.54" style="fill:white;fill-rule:nonzero;"/>
    <rect x="62.15" y="2.39" width="107.57" height="59.76" style="fill:rgb(44,59,76);fill-rule:nonzero;"/>
    <rect x="172.11" y="2.39" width="2.99" height="59.76" style="fill:rgb(207,30,53);fill-rule:nonzero;"/>
    <path d="M98.1,10.73L99.46,15.2L106.1,15.2L106.1,29.99L110.57,29.99L110.57,15.2L117.21,15.2L118.57,10.73L98.1,10.73Z" style="fill:white;fill-rule:nonzero;"/>
    <path d="M84.4,15.2L91.77,15.2C92.1,15.2 92.39,15.41 92.48,15.73L92.7,16.44L96.82,29.98L101.5,29.98L96.76,14.42C96.09,12.21 94.08,10.72 91.76,10.72L79.92,10.72L79.92,29.98L84.4,29.98L84.4,15.2Z" style="fill:white;fill-rule:nonzero;"/>
    <rect x="72.73" y="10.73" width="4.47" height="19.26" style="fill:white;fill-rule:nonzero;"/>
    <path d="M154.96,42.57L144.36,41.55C143.97,41.51 143.67,41.18 143.67,40.79L143.67,39.81C143.67,39.39 144.01,39.04 144.44,39.04L157.57,39.04L158.93,34.56L143.67,34.56C141.2,34.56 139.19,36.56 139.19,39.04L139.19,41.49C139.19,43.81 140.93,45.72 143.23,45.94L153.83,46.96C154.22,47 154.52,47.34 154.52,47.73L154.52,48.59C154.52,49.01 154.18,49.36 153.75,49.36L137.98,49.36L139.34,53.82L154.52,53.82C156.99,53.82 159,51.82 159,49.34L159,47.02C159,44.72 157.25,42.79 154.96,42.57Z" style="fill:white;fill-rule:nonzero;"/>
    <path d="M120.74,39.03L131.31,39.03C131.73,39.03 132.08,39.37 132.08,39.8L132.08,44.64C132.08,45.06 131.74,45.41 131.31,45.41L120.74,45.41L120.74,39.03ZM132.08,34.55L116.27,34.55L116.27,53.81L120.75,53.81L120.75,49.87L129.95,49.87C130.29,49.87 130.59,50.09 130.68,50.41L131.72,53.81L136.4,53.81L134.9,48.87C135.22,48.62 135.49,48.32 135.73,47.99C136.26,47.26 136.57,46.36 136.57,45.39L136.57,39.02C136.57,36.55 134.57,34.54 132.09,34.54L132.08,34.55Z" style="fill:white;fill-rule:nonzero;"/>
    <path d="M109.04,45.4L97.63,45.4L99.3,39.93L99.41,39.56C99.51,39.24 99.79,39.03 100.12,39.03L109.04,39.03L109.04,45.4ZM100.12,34.55C99.38,34.55 98.69,34.71 98.05,34.99C97,35.44 96.12,36.23 95.56,37.25C95.39,37.56 95.23,37.89 95.13,38.25L91.75,49.35L77.97,49.35C77.55,49.35 77.2,49.01 77.2,48.58L77.2,39.79C77.2,39.37 77.54,39.02 77.97,39.02L92.39,39.02L93.75,34.54L77.2,34.54C74.73,34.54 72.72,36.54 72.72,39.02L72.72,49.34C72.72,51.74 74.62,53.69 76.99,53.8L95.06,53.8L96.26,49.86L109.03,49.86L109.03,53.8L113.51,53.8L113.51,34.54L100.12,34.54L100.12,34.55Z" style="fill:white;fill-rule:nonzero;"/>
    <path d="M136.8,25.51L124.92,25.51C124.5,25.51 124.15,25.17 124.15,24.74L124.15,22.58L135.99,22.58L135.99,18.13L124.15,18.13L124.15,15.97C124.15,15.55 124.49,15.2 124.92,15.2L136.8,15.2L138.16,10.72L124.15,10.72C121.68,10.72 119.67,12.72 119.67,15.2L119.67,25.51C119.67,27.83 121.45,29.75 123.72,29.96C123.86,29.97 124,29.98 124.15,29.98L138.16,29.98L136.8,25.5L136.8,25.51Z" style="fill:white;fill-rule:nonzero;"/>
    <path d="M144.98,15.2L153.92,15.2C154.34,15.2 154.69,15.54 154.69,15.97L154.69,20.78C154.69,21.2 154.35,21.55 153.92,21.55L144.98,21.55L144.98,15.2ZM154.69,10.73L140.5,10.73L140.5,29.99L144.98,29.99L144.98,26.03L152.55,26.03C152.89,26.03 153.19,26.25 153.28,26.57L154.31,29.99L158.99,29.99L157.49,25.03C158.51,24.21 159.16,22.95 159.16,21.55L159.16,15.2C159.16,12.73 157.16,10.72 154.68,10.72L154.69,10.73Z" style="fill:white;fill-rule:nonzero;"/>
    <rect x="2.39" y="2.39" width="59.76" height="59.76" style="fill:rgb(207,30,53);fill-rule:nonzero;"/>
    <path d="M55.24,32.87L49.27,32.71C49.24,33.92 49.08,35.1 48.81,36.23L54.62,37.62C54.99,36.09 55.2,34.49 55.25,32.86L55.24,32.87Z" style="fill:white;fill-rule:nonzero;"/>
    <path d="M48.58,27.44L54.31,25.74C53.85,24.19 53.24,22.7 52.47,21.3L47.22,24.15C47.78,25.18 48.24,26.29 48.58,27.44Z" style="fill:white;fill-rule:nonzero;"/>
    <path d="M46.77,23.38L51.87,20.26C49.97,17.17 47.37,14.57 44.28,12.67L41.16,17.77C43.44,19.17 45.37,21.1 46.78,23.39L46.77,23.38Z" style="fill:white;fill-rule:nonzero;"/>
    <path d="M32.27,9.29L32.27,15.27C35.21,15.27 37.97,16.02 40.39,17.33C41.79,14.75 42.23,13.94 43.24,12.08C39.98,10.31 36.24,9.3 32.27,9.3L32.27,9.29Z" style="fill:white;fill-rule:nonzero;"/>
    <path d="M49.27,31.83L55.24,31.67C55.2,30.03 54.99,28.44 54.62,26.91L48.81,28.31C49.08,29.45 49.24,30.62 49.27,31.84L49.27,31.83Z" style="fill:white;fill-rule:nonzero;"/>
    <path d="M15.73,28.3L9.92,26.9C9.55,28.43 9.35,30.03 9.3,31.67L15.27,31.83C15.3,30.62 15.46,29.44 15.73,28.3Z" style="fill:white;fill-rule:nonzero;"/>
    <path d="M29.9,55.13L29.9,49.11C21.77,47.97 15.49,41.1 15.27,32.71L9.3,32.87C9.6,44.49 18.51,53.96 29.9,55.13Z" style="fill:white;fill-rule:nonzero;"/>
    <path d="M32.27,16.41C23.51,16.41 16.41,23.51 16.41,32.27C16.41,41.03 23.51,48.13 32.27,48.13C38.14,48.13 43.26,44.94 46,40.2L39.03,36.18C37.68,38.52 35.16,40.09 32.27,40.09C27.95,40.09 24.45,36.59 24.45,32.28C24.45,27.97 27.95,24.47 32.27,24.47C35.09,24.47 37.55,25.97 38.93,28.21L45.8,24C43.01,19.46 38,16.43 32.28,16.43L32.27,16.41Z" style="fill:white;fill-rule:nonzero;"/>
</svg>
