<?xml version="1.0" encoding="UTF-8" standalone="no"?>
<!DOCTYPE svg PUBLIC "-//W3C//DTD SVG 1.1//EN" "http://www.w3.org/Graphics/SVG/1.1/DTD/svg11.dtd">
<svg width="100%" height="100%" viewBox="0 0 56 64" version="1.1" xmlns="http://www.w3.org/2000/svg" xmlns:xlink="http://www.w3.org/1999/xlink" xml:space="preserve" xmlns:serif="http://www.serif.com/" style="fill-rule:evenodd;clip-rule:evenodd;stroke-miterlimit:10;">
    <path d="M52.7,43.3C52.7,44.9 51.6,46.7 50.3,47.6L30.4,59C29,59.7 26.9,59.7 25.5,59L5.7,47.5C4.3,46.8 3.3,44.8 3.3,43.2L3.3,20.3C3.3,18.7 4.4,16.9 5.7,16L25.5,4.6C26.9,3.9 29,3.9 30.4,4.6L50.2,16C51.6,16.7 52.6,18.7 52.6,20.3L52.7,43.3Z" style="fill:none;fill-rule:nonzero;stroke:rgb(138,62,192);stroke-width:5px;"/>
    <g>
        <path d="M19.9,37.8C22.6,39.8 25,40.9 27.5,40.9C30.1,40.9 31.2,39.9 31.2,38.4C31.2,36.4 28.2,35.5 25.2,34.4C21.6,33 17.4,30.6 17.4,25.7C17.4,20.2 21.9,16.5 28.7,16.5C33.2,16.5 36.5,18.3 39.1,20.2L35.2,25.4C33.1,23.9 31.1,23 29,23C26.7,23 25.7,23.8 25.7,25.3C25.7,27.2 28.4,27.9 31.5,29C35.2,30.4 39.5,32.4 39.5,37.9C39.5,43.3 35.3,47.4 27.4,47.4C23.5,47.4 19.1,45.7 16.1,43.3L19.9,37.8Z" style="fill:rgb(138,62,192);fill-rule:nonzero;"/>
    </g>
</svg>
