<svg width="189" height="42" viewBox="0 0 189 42" fill="none" xmlns="http://www.w3.org/2000/svg">
<g clip-path="url(#clip0_250_21242)">
<path d="M20.6269 11.4165L3.93837 0.373047C2.71603 1.14467 1.71136 2.22219 1.02156 3.50136C0.331768 4.78053 -0.0198044 6.21804 0.000861202 7.67481V25.067L20.6269 11.4165Z" fill="#DC463B"/>
<path d="M20.6268 11.416L0.000821984 25.0666C-0.0193594 26.5239 0.332387 27.9618 1.0221 29.2415C1.71182 30.5213 2.71622 31.5996 3.93833 32.3725L10.3118 36.5225L15.9753 40.2064C17.3537 41.1324 18.9719 41.6263 20.6268 41.6263C22.2818 41.6263 23.8999 41.1324 25.2784 40.2064L30.9419 36.5225L37.3112 32.3725C38.5347 31.6007 39.5403 30.5227 40.2308 29.2428C40.9213 27.9629 41.2734 26.5244 41.2528 25.0666L20.6268 11.416Z" fill="#F1993F"/>
<path d="M20.625 11.4165L41.251 25.067V7.67481C41.2716 6.21757 40.9196 4.77965 40.229 3.50038C39.5385 2.22111 38.5328 1.14387 37.3094 0.373047L20.625 11.4165Z" fill="#48A1A9"/>
</g>
<path d="M59.132 24.2216V37.396H53.2539V14.351H54.6722L56.6151 16.5891C57.5607 15.7256 58.6319 15.0615 59.8288 14.597C61.0257 14.1269 62.2773 13.8919 63.5835 13.8919C64.9882 13.8919 66.3163 14.1625 67.5678 14.7035C68.814 15.2391 69.9043 15.977 70.8389 16.917C71.768 17.8571 72.5031 18.9556 73.0442 20.2127C73.5798 21.4697 73.8476 22.806 73.8476 24.2216V37.396H67.9777V24.2216C67.9777 23.6204 67.863 23.052 67.6334 22.5163C67.4039 21.9753 67.0869 21.5052 66.6824 21.1063C66.2835 20.7018 65.8162 20.3848 65.2806 20.1553C64.7504 19.9257 64.1847 19.811 63.5835 19.811C62.966 19.811 62.3839 19.9257 61.8373 20.1553C61.2963 20.3848 60.8235 20.7018 60.4191 21.1063C60.0201 21.5052 59.7058 21.9753 59.4763 22.5163C59.2467 23.052 59.132 23.6204 59.132 24.2216ZM84.9561 8.08765C84.9561 8.62873 84.8522 9.13701 84.6445 9.6125C84.4368 10.088 84.1526 10.5006 83.7919 10.8504C83.4312 11.2002 83.0104 11.4789 82.5294 11.6866C82.0485 11.8943 81.5374 11.9982 80.9964 11.9982C80.4498 11.9982 79.9361 11.8943 79.4551 11.6866C78.9742 11.4789 78.5588 11.2002 78.209 10.8504C77.8537 10.5006 77.5723 10.088 77.3646 9.6125C77.1569 9.13701 77.0531 8.62873 77.0531 8.08765C77.0531 7.5575 77.1569 7.05195 77.3646 6.571C77.5723 6.09004 77.8537 5.67193 78.209 5.31668C78.5588 4.96689 78.9742 4.68816 79.4551 4.48047C79.9361 4.27279 80.4498 4.16895 80.9964 4.16895C81.5374 4.16895 82.0485 4.27279 82.5294 4.48047C83.0104 4.68816 83.4312 4.96689 83.7919 5.31668C84.1526 5.67193 84.4368 6.09004 84.6445 6.571C84.8522 7.05195 84.9561 7.5575 84.9561 8.08765ZM83.9395 14.351V37.396H78.0204V14.351H83.9395ZM111.485 25.6644C111.485 27.4735 111.179 29.124 110.567 30.6161C109.949 32.1082 109.108 33.3898 108.042 34.461C106.982 35.5268 105.738 36.3548 104.312 36.9451C102.885 37.5353 101.355 37.8304 99.7209 37.8304C98.0977 37.8304 96.5728 37.5271 95.1463 36.9205C93.7199 36.3193 92.471 35.4803 91.3998 34.4036C90.3286 33.3269 89.4869 32.048 88.8748 30.5669C88.2572 29.0803 87.9484 27.4462 87.9484 25.6644V5.17731H93.8428V15.9415C94.1598 15.537 94.5424 15.179 94.9906 14.8675C95.4442 14.5505 95.9333 14.2909 96.458 14.0887C96.9827 13.8865 97.5238 13.7334 98.0813 13.6296C98.6387 13.5203 99.1853 13.4656 99.7209 13.4656C101.355 13.4656 102.885 13.7689 104.312 14.3756C105.738 14.9877 106.982 15.8403 108.042 16.9334C109.108 18.021 109.949 19.3082 110.567 20.7947C111.179 22.2759 111.485 23.8991 111.485 25.6644ZM105.574 25.6644C105.574 24.779 105.419 23.951 105.107 23.1804C104.801 22.4152 104.383 21.7512 103.853 21.1883C103.317 20.6308 102.694 20.1935 101.984 19.8766C101.279 19.5596 100.524 19.4011 99.7209 19.4011C98.9175 19.4011 98.1605 19.5787 97.45 19.9339C96.7395 20.2837 96.1192 20.7483 95.589 21.3276C95.0534 21.9124 94.6353 22.5819 94.3347 23.3362C94.0341 24.0849 93.8838 24.861 93.8838 25.6644C93.8838 26.5553 94.0341 27.3806 94.3347 28.1403C94.6353 28.9 95.0534 29.5613 95.589 30.1242C96.1192 30.6817 96.7395 31.1216 97.45 31.4441C98.1605 31.7666 98.9175 31.9278 99.7209 31.9278C100.524 31.9278 101.279 31.7666 101.984 31.4441C102.694 31.1216 103.317 30.6817 103.853 30.1242C104.383 29.5613 104.801 28.9 105.107 28.1403C105.419 27.3806 105.574 26.5553 105.574 25.6644Z" fill="#DC463B"/>
<path d="M119.821 24.221V37.3954H113.943V14.3505H115.362L117.305 16.5885C118.25 15.725 119.321 15.061 120.518 14.5964C121.715 14.1264 122.967 13.8914 124.273 13.8914C125.678 13.8914 127.006 14.1619 128.257 14.703C129.503 15.2386 130.594 15.9764 131.528 16.9165C132.457 17.8565 133.193 18.9551 133.734 20.2121C134.269 21.4692 134.537 22.8055 134.537 24.221V37.3954H128.667V24.221C128.667 23.6198 128.552 23.0514 128.323 22.5158C128.093 21.9747 127.776 21.5047 127.372 21.1057C126.973 20.7013 126.506 20.3843 125.97 20.1547C125.44 19.9252 124.874 19.8104 124.273 19.8104C123.655 19.8104 123.073 19.9252 122.527 20.1547C121.986 20.3843 121.513 20.7013 121.109 21.1057C120.71 21.5047 120.395 21.9747 120.166 22.5158C119.936 23.0514 119.821 23.6198 119.821 24.221ZM161.033 14.3915V37.3954H159.607L157.328 34.2309C156.77 34.7337 156.18 35.2038 155.557 35.641C154.929 36.0782 154.27 36.4581 153.581 36.7805C152.893 37.103 152.188 37.3571 151.466 37.543C150.739 37.7342 150.004 37.8299 149.261 37.8299C147.638 37.8299 146.113 37.5566 144.686 37.0101C143.26 36.4635 142.011 35.6711 140.94 34.6326C139.874 33.5887 139.032 32.3153 138.415 30.8123C137.797 29.3038 137.488 27.5877 137.488 25.6639C137.488 23.8712 137.797 22.2261 138.415 20.7286C139.032 19.2311 139.874 17.944 140.94 16.8673C142.011 15.7906 143.26 14.9544 144.686 14.3587C146.113 13.7629 147.638 13.4651 149.261 13.4651C150.004 13.4651 150.742 13.558 151.474 13.7438C152.207 13.9296 152.917 14.1892 153.606 14.5226C154.295 14.8505 154.95 15.2359 155.573 15.6786C156.197 16.1267 156.781 16.6077 157.328 17.1214L159.607 14.3915H161.033ZM155.114 25.6639C155.114 24.8605 154.959 24.0844 154.647 23.3356C154.341 22.5814 153.923 21.9119 153.393 21.3271C152.863 20.7477 152.242 20.2832 151.532 19.9334C150.821 19.5781 150.064 19.4005 149.261 19.4005C148.457 19.4005 147.701 19.5371 146.99 19.8104C146.28 20.0837 145.662 20.4854 145.137 21.0155C144.613 21.5457 144.2 22.2043 143.899 22.9913C143.599 23.7728 143.448 24.6637 143.448 25.6639C143.448 26.6695 143.599 27.5631 143.899 28.3447C144.2 29.1262 144.613 29.7821 145.137 30.3122C145.662 30.8424 146.28 31.2441 146.99 31.5173C147.701 31.7906 148.457 31.9272 149.261 31.9272C150.064 31.9272 150.821 31.7523 151.532 31.4026C152.242 31.0528 152.863 30.5855 153.393 30.0007C153.923 29.4213 154.341 28.7546 154.647 28.0003C154.959 27.2461 155.114 26.4673 155.114 25.6639ZM188.579 25.6639C188.579 27.4729 188.27 29.1235 187.653 30.6155C187.035 32.1076 186.196 33.3892 185.136 34.4605C184.076 35.5262 182.829 36.3542 181.398 36.9445C179.971 37.5348 178.441 37.8299 176.807 37.8299C175.183 37.8299 173.659 37.5266 172.232 36.9199C170.806 36.3187 169.557 35.4798 168.485 34.4031C167.42 33.3264 166.578 32.0475 165.96 30.5664C165.343 29.0798 165.034 27.4456 165.034 25.6639V5.17676H170.929V15.9409C171.246 15.5365 171.631 15.1785 172.084 14.8669C172.533 14.5499 173.019 14.2903 173.544 14.0881C174.068 13.8859 174.61 13.7329 175.167 13.629C175.73 13.5197 176.276 13.4651 176.807 13.4651C178.441 13.4651 179.971 13.7684 181.398 14.3751C182.829 14.9872 184.076 15.8398 185.136 16.9329C186.196 18.0205 187.035 19.3076 187.653 20.7942C188.27 22.2753 188.579 23.8985 188.579 25.6639ZM182.66 25.6639C182.66 24.7785 182.504 23.9505 182.193 23.1798C181.887 22.4147 181.469 21.7506 180.938 21.1877C180.408 20.6302 179.788 20.193 179.077 19.876C178.367 19.559 177.61 19.4005 176.807 19.4005C176.003 19.4005 175.246 19.5781 174.536 19.9334C173.825 20.2832 173.205 20.7477 172.675 21.3271C172.145 21.9119 171.729 22.5814 171.429 23.3356C171.123 24.0844 170.97 24.8605 170.97 25.6639C170.97 26.5547 171.123 27.38 171.429 28.1397C171.729 28.8994 172.145 29.5607 172.675 30.1237C173.205 30.6811 173.825 31.1211 174.536 31.4436C175.246 31.766 176.003 31.9272 176.807 31.9272C177.61 31.9272 178.367 31.766 179.077 31.4436C179.788 31.1211 180.408 30.6811 180.938 30.1237C181.469 29.5607 181.887 28.8994 182.193 28.1397C182.504 27.38 182.66 26.5547 182.66 25.6639Z" fill="#48A1A9"/>
<defs>
<clipPath id="clip0_250_21242">
<rect width="41.2537" height="41.2537" fill="white" transform="translate(0 0.373047)"/>
</clipPath>
</defs>
</svg>
