<?xml version="1.0" encoding="UTF-8" standalone="no"?>
<svg
   xmlns:dc="http://purl.org/dc/elements/1.1/"
   xmlns:cc="http://creativecommons.org/ns#"
   xmlns:rdf="http://www.w3.org/1999/02/22-rdf-syntax-ns#"
   xmlns:svg="http://www.w3.org/2000/svg"
   xmlns="http://www.w3.org/2000/svg"
   viewBox="0 0 1025.9018 215.60933"
   height="215.60933"
   width="1025.9019"
   xml:space="preserve"
   id="svg2"
   version="1.1"><metadata
     id="metadata8"><rdf:RDF><cc:Work
         rdf:about=""><dc:format>image/svg+xml</dc:format><dc:type
           rdf:resource="http://purl.org/dc/dcmitype/StillImage" /></cc:Work></rdf:RDF></metadata><defs
     id="defs6"><clipPath
       id="clipPath18"
       clipPathUnits="userSpaceOnUse"><path
         id="path16"
         d="M 0,595.28 H 841.89 V 0 H 0 Z" /></clipPath></defs><g
     transform="matrix(1.3333333,0,0,-1.3333333,-48.309332,494.36359)"
     id="g10"><g
       id="g12"><g
         clip-path="url(#clipPath18)"
         id="g14"><path
           id="path20"
           style="fill:#f7931d;fill-opacity:1;fill-rule:nonzero;stroke:none"
           d="M 195.706,231.651 H 85.54 v 6.251 h 110.166 z m -124.236,0 h -6.251 v 6.251 h 6.251 z m -15.636,0 h -6.251 v 6.251 h 6.251 z M 198.703,259.93 H 44.61 c -4.627,0 -8.378,-3.751 -8.378,-8.378 v -33.55 c 0,-4.628 3.751,-8.379 8.378,-8.379 h 154.093 c 4.627,0 8.378,3.751 8.378,8.379 v 33.55 c 0,4.627 -3.751,8.378 -8.378,8.378" /><path
           id="path22"
           style="fill:#f7931d;fill-opacity:1;fill-rule:nonzero;stroke:none"
           d="M 195.706,286.696 H 85.54 v 6.251 h 110.166 z m -124.236,0 h -6.251 v 6.251 h 6.251 z m -15.636,0 h -6.251 v 6.251 h 6.251 z m 142.869,28.279 H 44.61 c -4.627,0 -8.378,-3.751 -8.378,-8.378 v -33.551 c 0,-4.627 3.751,-8.378 8.378,-8.378 h 154.093 c 4.627,0 8.378,3.751 8.378,8.378 v 33.551 c 0,4.627 -3.751,8.378 -8.378,8.378" /><path
           id="path24"
           style="fill:#f7931d;fill-opacity:1;fill-rule:nonzero;stroke:none"
           d="M 195.706,341.741 H 85.54 v 6.251 h 110.166 z m -124.236,0 h -6.251 v 6.251 h 6.251 z m -15.636,0 h -6.251 v 6.251 h 6.251 z m 142.869,28.278 H 44.61 c -4.627,0 -8.378,-3.751 -8.378,-8.378 v -33.55 c 0,-4.627 3.751,-8.378 8.378,-8.378 h 154.093 c 4.627,0 8.378,3.751 8.378,8.378 v 33.55 c 0,4.627 -3.751,8.378 -8.378,8.378" /><g
           transform="translate(226.1707,238.7687)"
           id="g26"><path
             id="path28"
             style="fill:#58595b;fill-opacity:1;fill-rule:nonzero;stroke:none"
             d="m 0,0 c 1.769,1.913 4.35,2.869 7.739,2.869 h 106.495 c 15.86,0 24.949,1.394 27.259,4.185 6.62,4.334 9.933,9.756 9.933,16.26 0,8.053 -4.851,14.171 -14.553,18.354 -2.004,1.238 -9.551,1.859 -22.639,1.859 H 42.621 c -22.639,0 -37.423,10.547 -44.354,31.648 -0.924,4.158 -1.386,8.317 -1.386,12.475 v 0.462 c 0,19.095 8.779,32.724 26.335,40.888 5.083,2 10.933,3.004 17.557,3.004 h 134.678 c 2.924,0 5.349,-0.888 7.277,-2.657 1.924,-1.772 2.888,-4.353 2.888,-7.739 v -11.781 c 0,-2.927 -0.849,-5.393 -2.541,-7.393 -1.697,-2.003 -4.238,-3.003 -7.624,-3.003 H 59.254 c -14.016,0 -21.794,-1.465 -23.332,-4.389 -2.159,-1.696 -3.234,-4.158 -3.234,-7.392 0,-5.855 4.309,-9.471 12.936,-10.858 2.924,-0.461 8.086,-0.693 15.478,-0.693 h 72.075 c 22.328,0 38.423,-10.243 48.28,-30.724 2.772,-6.468 4.159,-13.709 4.159,-21.715 v -0.693 c 0,-20.177 -8.627,-35.575 -25.873,-46.202 -7.703,-4.313 -16.25,-6.468 -25.642,-6.468 H 7.739 c -3.083,0 -5.584,0.877 -7.508,2.639 -1.928,1.757 -2.888,4.321 -2.888,7.685 v 11.926 c 0,3.057 0.885,5.54 2.657,7.453" /></g><g
           transform="translate(426.455,367.8848)"
           id="g30"><path
             id="path32"
             style="fill:#58595b;fill-opacity:1;fill-rule:nonzero;stroke:none"
             d="m 0,0 c 1.768,1.924 4.349,2.887 7.738,2.887 h 133.755 c 20.173,0 34.11,-9.702 41.812,-29.107 1.386,-4.62 2.079,-9.395 2.079,-14.322 v -1.617 c 0,-19.56 -9.626,-33.265 -28.876,-41.12 -2.159,-0.772 -6.046,-1.425 -11.666,-1.963 -5.624,-0.542 -13.131,-0.808 -22.523,-0.808 -6.317,-0.925 -9.471,-2.928 -9.471,-6.007 v -0.462 c 0,-4.006 4.464,-9.165 13.398,-15.478 l 49.897,-41.813 c 1.231,-1.386 1.849,-3.082 1.849,-5.082 0,-2.62 -2.851,-3.927 -8.547,-3.927 H 141.03 c -6.93,0 -14.246,3.617 -21.945,10.857 -43.74,36.189 -66.148,54.901 -67.224,56.135 -4.469,4.004 -6.699,9.703 -6.699,17.096 v 9.702 c 0,8.006 3.541,12.012 10.626,12.012 h 65.375 c 14.474,0 22.64,1.307 24.488,3.928 2.617,1.847 3.927,4.465 3.927,7.854 0,4.927 -2.852,8.316 -8.548,10.164 -1.848,0.924 -7.853,1.386 -18.018,1.386 H 50.706 c -10.937,0 -17.095,-2.079 -18.48,-6.237 -1.235,-2.621 -1.849,-5.237 -1.849,-7.854 -0.155,-26.335 -0.231,-48.205 -0.231,-65.607 v -39.965 c 0,-2.465 -0.924,-4.659 -2.772,-6.583 -1.848,-1.928 -4.389,-2.888 -7.623,-2.888 H 7.738 c -3.082,0 -5.584,0.884 -7.507,2.657 -1.928,1.769 -2.888,4.349 -2.888,7.739 V -7.508 c 0,3.079 0.885,5.581 2.657,7.508" /></g><g
           transform="translate(659.1984,352.7534)"
           id="g34"><path
             id="path36"
             style="fill:#58595b;fill-opacity:1;fill-rule:nonzero;stroke:none"
             d="m 0,0 c 4.004,-8.009 9.624,-19.253 16.864,-33.727 7.237,-14.478 16.091,-32.342 26.566,-53.595 2.924,-4.005 5.39,-6.005 7.393,-6.005 h 2.078 c 3.848,0 8.93,7.392 15.248,22.176 l 40.888,82.009 c 3.234,4.771 7.392,7.161 12.474,7.161 h 17.094 c 4.621,0 7.238,-1.927 7.855,-5.775 v -1.155 c 0,-2.311 -3.003,-9.089 -9.009,-20.329 -17.867,-36.193 -32.035,-64.878 -42.505,-86.05 -10.475,-21.177 -17.326,-34.999 -20.56,-41.467 -3.235,-4.62 -7.624,-6.93 -13.168,-6.93 H 42.507 c -7.855,0 -13.63,5.082 -17.326,15.246 -43.74,87.935 -66.38,133.906 -67.917,137.913 v 2.772 c 0,3.385 2.541,5.313 7.623,5.775 h 17.095 C -10.474,18.019 -4.468,12.013 0,0" /></g></g></g></g></svg>